<?xml version="1.0" encoding="UTF-8"?>
<svg viewBox="0 0 2271.4 1665.7" xmlns="http://www.w3.org/2000/svg" xmlns:xlink="http://www.w3.org/1999/xlink">
 <defs>
  <clipPath id="j">
   <rect transform="translate(787.96 235.97)" x="-782.6" y="-231.6" width="3599.6" height="1625.5" rx="33.341" ry="20.375" fill="url(#b)" stroke-linecap="round" stroke-linejoin="round" stroke-width="3"/>
  </clipPath>
  <clipPath id="l">
   <path d="m1889 99.754c-48.512 0-90.277 11.93-108.88 29.029-4.2689-0.29482-8.6095-0.45761-13.02-0.45756-57.892 0-104.88 26.516-104.88 59.185 0 28.592 35.996 52.465 83.786 57.98 14.848 30.919 81.28 54.263 160.92 54.263 90.548 0 164.04-30.168 164.04-67.344l-0.1179-1.0826c29.334-9.232 48.521-24.502 48.521-41.775l-0.4219-4.3861c-5.1006-26.509-53.968-46.621-113.33-46.641-11.48-22.433-59.405-38.772-116.62-38.772z" fill="#fdfdfd" opacity=".893" stroke-linecap="round" stroke-linejoin="round" stroke-width="5"/>
  </clipPath>
  <clipPath id="m">
   <path d="m854.74 191.18c-48.512 0-90.277 11.93-108.88 29.029-4.2689-0.29483-8.6095-0.45761-13.02-0.45758-57.892 0-104.88 26.516-104.88 59.185 0 28.592 35.996 52.464 83.786 57.98 14.848 30.919 81.281 54.263 160.92 54.263 90.548 0 164.04-30.168 164.04-67.344l-0.1177-1.0826c29.334-9.2321 48.52-24.502 48.52-41.775l-0.4215-4.3861c-5.1006-26.509-53.967-46.621-113.33-46.641-11.48-22.433-59.406-38.772-116.62-38.772z" fill="#fdfdfd" opacity=".893" stroke-linecap="round" stroke-linejoin="round" stroke-width="5"/>
  </clipPath>
  <clipPath id="k">
   <rect transform="translate(787.96 235.97)" x="-791.16" y="-243.84" width="3815.5" height="1723" rx="35.341" ry="21.597" fill="url(#c)" stroke-linecap="round" stroke-linejoin="round" stroke-width="3"/>
  </clipPath>
  <filter id="f" x="-.095832" y="-.21905" width="1.1917" height="1.4381">
   <feGaussianBlur stdDeviation="18.254341"/>
  </filter>
  <filter id="h" x="-.13033" y="-.29791" width="1.2607" height="1.5958">
   <feGaussianBlur stdDeviation="24.825904"/>
  </filter>
  <filter id="g" x="-.095726" y="-.21881" width="1.1915" height="1.4376">
   <feGaussianBlur stdDeviation="18.234042"/>
  </filter>
  <filter id="i" x="-.24816" y="-.26435" width="1.4963" height="1.5287">
   <feGaussianBlur stdDeviation="57.904762"/>
  </filter>
  <linearGradient id="d" x1=".5" x2=".51067" y1="-.070132" y2="1.4259">
   <stop stop-color="#55a800" offset="0"/>
   <stop stop-color="#74e400" offset="1"/>
  </linearGradient>
  <linearGradient id="c" x1="345.71" x2="345.71" y1="-241.93" y2="978.18" gradientTransform="matrix(1.6798 0 0 1.6798 437.49 -163.82)" gradientUnits="userSpaceOnUse" xlink:href="#a"/>
  <linearGradient id="e" x1=".47421" x2=".47421" y1="-.18942" y2="1.0001" xlink:href="#a"/>
  <linearGradient id="a">
   <stop stop-color="#00acf4" offset="0"/>
   <stop stop-color="#a6e5ff" offset="1"/>
  </linearGradient>
  <linearGradient id="b" x1="345.71" x2="345.71" y1="-241.93" y2="978.18" gradientTransform="matrix(1.5847 0 0 1.5847 376.51 -156.11)" gradientUnits="userSpaceOnUse" xlink:href="#a"/>
 </defs>
 <g stroke-linecap="round" stroke-linejoin="round" stroke-width="3">
  <rect x=".009397" y="4.3478" width="2271.4" height="1025.7" rx="21.039" ry="12.857" fill="url(#e)"/>
  <path d="m1207.1 804.96c-215.17 0-379.22 34.241-506.19 86.406-139.69-48.926-270.22-63.531-468.09-63.531-83.303 0-163.48 5.155-237.16 15.062v809.97c0 7.1229 9.4069 12.844 21.062 12.844h2229.3c11.656 0 21.031-5.721 21.031-12.844v-707.41c-167.74 0.92847-334.18 3.1738-499.12 6.7188-168.05-63.884-304.03-147.22-560.88-147.22z" fill="url(#d)"/>
 </g>
 <g stroke-linecap="round" stroke-linejoin="round">
  <path d="m870.46 1082.6c67.917 0 126.39 11.93 152.44 29.029 5.9764-0.2948 12.053-0.45764 18.228-0.45764 81.048 0 146.84 26.516 146.84 59.185 0 28.592-50.394 52.465-117.3 57.98-20.788 30.919-113.79 54.263-225.29 54.263-126.77 0-229.66-30.168-229.66-67.344l0.1648-1.0825c-41.067-9.2321-67.928-24.502-67.928-41.775l0.5903-4.3861c7.1408-26.509 75.554-46.621 158.66-46.641 16.072-22.433 83.167-38.772 163.27-38.772z" filter="url(#h)" opacity=".031" stroke-width="5"/>
  <path d="m323.2 163.49a176.69 165.87 0 1 1 -0.65326 -14.251" clip-path="url(#j)" fill="#f57900" filter="url(#i)" opacity=".289" stroke-width="8.399"/>
  <path d="m234.16 1337.6c-4.1834 1.4266-5.2298 4.703-8.7423 9.6024-4.5709 8.4078-13.829 33.589-12.788 37.707 1.3806 7.4174 13.012-34.612 21.53-47.309zm-78.536 18.335c9.9286 30.302 10.863 32.572 18.607 32.132-1.6445-5.5913-6.3654-10.145-9.6783-15.458-3.5311-5.6637-5.4506-16.255-8.9283-16.674zm34.899 1.1049c-11.3 19.798-12.507 26.929-10.604 29.159 3.4802 2.1522 2.7205-3.4653 10.604-29.159zm21.141 4.2456c-2.7819-0.75964-4.8085 6.0978-5.9143 11.707-2.8233 14.321-2.8553 12.254-0.95215 13.468 2.6238 1.6733 2.6074-12.94 6.8665-25.175zm18.712-1.3151c-2.9118 0.13977-4.4264 5.9412-6.4682 11.296-2.0507 10.211-8.0194 16.554-3.8098 16.942 4.1852 0.38562 7.0807-16.118 10.278-28.238zm-31.208 3.9279c-9.1826 16.418-11.147 21.454-7.4583 22.132 2.3779 0.43701 2.5656-3.575 5.2805-10.32 1.7487-4.3451 3.9289-8.1525 2.1779-11.812z" fill="#1e9e00" opacity=".698" stroke-width="3"/>
  <path d="m395.81 202.62a166.69 156.48 0 1 1 -333.38 0 166.69 156.48 0 1 1 333.38 0z" clip-path="url(#k)" fill="#ff0" stroke="#fcaf3e" stroke-width="8.399"/>
  <g stroke-width="5">
   <g fill="#fdfdfd">
    <path d="m1889 99.754c-48.512 0-90.277 11.93-108.88 29.029-4.2689-0.29482-8.6095-0.45761-13.02-0.45756-57.892 0-104.88 26.516-104.88 59.185 0 28.592 35.996 52.465 83.786 57.98 14.848 30.919 81.28 54.263 160.92 54.263 90.548 0 164.04-30.168 164.04-67.344l-0.1179-1.0826c29.334-9.232 48.521-24.502 48.521-41.775l-0.4219-4.3861c-5.1006-26.509-53.968-46.621-113.33-46.641-11.48-22.433-59.405-38.772-116.62-38.772z" clip-path="url(#l)" filter="url(#f)"/>
    <path d="m867.8 202.61c73.375 0 136.54 14.998 164.69 36.494 6.4565-0.37065 13.022-0.57529 19.692-0.57526 87.56 0 158.64 33.334 158.64 74.404 0 35.944-54.443 65.955-126.72 72.889-22.458 38.87-122.94 68.217-243.4 68.217-136.95 0-248.11-37.926-248.11-84.661l0.178-1.361c-44.367-11.606-73.387-30.802-73.387-52.516l0.6376-5.514c7.7146-33.326 81.625-58.609 171.4-58.634 17.364-28.202 89.85-48.742 176.39-48.742z" clip-path="url(#m)" filter="url(#g)"/>
   </g>
   <g transform="matrix(-.21062 0 0 .55624 -341.33 359.6)" fill="#009800" opacity=".698">
    <path d="m-3686.4 2154.2c-12.956-57.3-65.418-104.15-110.76-139.78 58.284 5.9638 98.62 69.925 124.04 117.93 2.5728 8.9761-2.4451 22.198-13.283 21.844z"/>
    <path d="m-3611.8 2145.5c16.922-30.073-35.48-114.77-26.256-150.66 29.29 54.484 47.241 92.356 42.015 140.91-3.4168 5.6748-10.499 6.5676-15.759 9.7466z"/>
    <path d="m-3537.3 2143.1c25.249-47.251 55.258-94.922 108.54-113.32-29.528 20.459-63.096 41.024-76.158 76.46-6.8452 14.83-14.696 32.876-32.381 36.858z"/>
    <path d="m-3428.5 2152.1c20.264-9.1597 40.634-61.067 69.03-84.929-31.307 78.414-42.604 86.368-69.03 84.929z"/>
    <path d="m-3571.6 2134.6c12.68-15.09 17.682-39.51 39.27-44.824-11.711 15.824-17.507 39.78-39.27 44.824z"/>
    <path d="m-3650.4 2109.3c-10.25-21.323-21.088-42.661-36.166-61.047 42.017 18.971 55.649 50.302 36.166 61.047z"/>
    <path d="m-3457 2105.9c18.254-21.316 39.844-40.696 65.96-51.725-22.992 11.943-42.077 44.868-65.96 51.725z"/>
   </g>
   <g fill="#008c00">
    <g transform="matrix(-.28448 0 0 .39141 808.19 580.56)" opacity=".698">
     <path d="m-2715.1 2332.8c-12.956-57.3-65.418-104.15-110.76-139.78 58.284 5.9636 98.62 69.925 124.04 117.93 2.5728 8.9763-2.4451 22.198-13.283 21.844z"/>
     <path d="m-2640.5 2324.1c16.922-30.074-35.48-114.77-26.256-150.66 29.29 54.484 47.241 92.356 42.015 140.91-3.4168 5.6746-10.499 6.5676-15.759 9.7466z"/>
     <path d="m-2566 2321.8c25.249-47.251 55.258-94.921 108.54-113.32-29.528 20.459-63.096 41.024-76.158 76.46-6.8452 14.83-14.696 32.876-32.381 36.858z"/>
     <path d="m-2457.2 2330.7c20.264-9.1599 40.634-61.067 69.03-84.929-31.307 78.414-42.604 86.368-69.03 84.929z"/>
     <path d="m-2600.3 2313.2c12.68-15.091 17.682-39.51 39.27-44.824-11.711 15.824-17.507 39.78-39.27 44.824z"/>
     <path d="m-2679.1 2287.9c-10.25-21.323-21.088-42.661-36.166-61.047 42.017 18.971 55.65 50.302 36.166 61.047z"/>
     <path d="m-2485.7 2284.5c18.253-21.316 39.844-40.696 65.96-51.725-22.992 11.943-42.077 44.868-65.96 51.725z"/>
    </g>
    <g transform="matrix(.32603 0 0 .48016 1333.7 586.94)" opacity=".698">
     <path d="m2471.6 2221.4c-12.956-57.3-65.418-104.15-110.76-139.78 58.284 5.9639 98.62 69.926 124.04 117.93 2.5728 8.9763-2.4451 22.198-13.283 21.844z"/>
     <path d="m2546.1 2212.7c16.922-30.074-35.48-114.77-26.256-150.66 29.29 54.484 47.241 92.356 42.015 140.91-3.4168 5.6746-10.499 6.5676-15.759 9.7466z"/>
     <path d="m2620.7 2210.3c25.249-47.251 55.258-94.921 108.54-113.32-29.528 20.459-63.096 41.024-76.158 76.46-6.8452 14.83-14.696 32.876-32.381 36.858z"/>
     <path d="m2729.4 2219.3c20.264-9.1599 40.634-61.067 69.03-84.929-31.307 78.414-42.604 86.368-69.03 84.929z"/>
     <path d="m2586.4 2201.8c12.68-15.091 17.682-39.51 39.27-44.824-11.711 15.824-17.507 39.78-39.27 44.824z"/>
     <path d="m2507.6 2176.5c-10.25-21.323-21.088-42.661-36.166-61.047 42.017 18.972 55.65 50.302 36.166 61.047z"/>
     <path d="m2701 2173.1c18.253-21.316 39.844-40.696 65.96-51.725-22.992 11.943-42.077 44.868-65.96 51.725z"/>
    </g>
    <g transform="matrix(-.19216 0 0 .21391 1121.5 743.18)" opacity=".698">
     <path d="m-4045.9 2833.1c-12.956-57.3-65.419-104.15-110.76-139.78 58.285 5.9636 98.621 69.925 124.04 117.93 2.5728 8.9761-2.4453 22.198-13.283 21.844z"/>
     <path d="m-3971.3 2824.4c16.922-30.073-35.48-114.77-26.256-150.66 29.29 54.484 47.241 92.356 42.015 140.91-3.4168 5.6748-10.499 6.5679-15.759 9.7466z"/>
     <path d="m-3896.8 2822c25.249-47.251 55.258-94.921 108.54-113.32-29.528 20.46-63.096 41.024-76.158 76.46-6.8452 14.83-14.696 32.876-32.381 36.858z"/>
     <path d="m-3788 2831c20.264-9.1599 40.634-61.067 69.03-84.929-31.307 78.414-42.604 86.368-69.03 84.929z"/>
     <path d="m-3931.1 2813.5c12.68-15.09 17.682-39.51 39.27-44.824-11.711 15.824-17.507 39.78-39.27 44.824z"/>
     <path d="m-4009.9 2788.2c-10.25-21.323-21.087-42.661-36.166-61.047 42.017 18.972 55.649 50.302 36.166 61.047z"/>
     <path d="m-3816.5 2784.8c18.254-21.315 39.844-40.695 65.96-51.724-22.992 11.943-42.077 44.868-65.96 51.724z"/>
    </g>
    <g transform="matrix(.16908 0 0 .16319 1217.8 559.51)" opacity=".698">
     <path d="m4715.1 3175.9c-12.956-57.3-65.418-104.15-110.76-139.78 58.285 5.9636 98.621 69.925 124.04 117.93 2.5728 8.9761-2.4453 22.198-13.283 21.844z"/>
     <path d="m4789.7 3167.2c16.922-30.073-35.48-114.77-26.256-150.66 29.29 54.484 47.241 92.356 42.015 140.91-3.417 5.6748-10.499 6.5676-15.759 9.7466z"/>
     <path d="m4864.2 3164.9c25.25-47.251 55.259-94.921 108.54-113.32-29.528 20.459-63.096 41.024-76.158 76.46-6.8447 14.83-14.696 32.876-32.38 36.858z"/>
     <path d="m4972.9 3173.8c20.264-9.1599 40.634-61.067 69.031-84.929-31.308 78.414-42.604 86.368-69.031 84.929z"/>
     <path d="m4829.9 3156.3c12.68-15.09 17.682-39.51 39.27-44.824-11.711 15.824-17.507 39.78-39.27 44.824z"/>
     <path d="m4751.1 3131c-10.25-21.323-21.087-42.661-36.165-61.047 42.017 18.972 55.649 50.302 36.165 61.047z"/>
     <path d="m4944.5 3127.6c18.253-21.315 39.844-40.696 65.96-51.725-22.992 11.943-42.077 44.868-65.96 51.725z"/>
    </g>
   </g>
   <g transform="matrix(.38604 0 0 .49284 -213.2 373.3)" fill="#009800">
    <path d="m2095.9 2208.7c-12.956-57.3-65.418-104.15-110.76-139.78 58.284 5.9636 98.62 69.925 124.04 117.93 2.5728 8.9763-2.4451 22.198-13.283 21.844z"/>
    <path d="m2170.4 2200.1c16.922-30.074-35.48-114.77-26.256-150.66 29.29 54.484 47.241 92.356 42.014 140.91-3.4165 5.6746-10.499 6.5676-15.758 9.7466z"/>
    <path d="m2244.9 2197.7c25.249-47.251 55.258-94.921 108.54-113.32-29.528 20.459-63.096 41.024-76.158 76.46-6.8452 14.83-14.696 32.876-32.381 36.858z"/>
    <path d="m2353.7 2206.7c20.264-9.1599 40.634-61.067 69.03-84.929-31.307 78.414-42.604 86.368-69.03 84.929z"/>
    <path d="m2210.7 2189.1c12.68-15.091 17.682-39.51 39.27-44.824-11.711 15.824-17.507 39.78-39.27 44.824z"/>
    <path d="m2131.9 2163.8c-10.25-21.323-21.087-42.661-36.165-61.047 42.017 18.971 55.649 50.302 36.165 61.047z"/>
    <path d="m2325.3 2160.5c18.253-21.316 39.844-40.696 65.96-51.725-22.992 11.943-42.077 44.868-65.96 51.725z"/>
   </g>
  </g>
  <path d="m2242.6 996.16c1.523 0.31628 1.9038 1.0425 3.1826 2.1284 1.6641 1.8636 5.0342 7.4451 4.655 8.3577-0.50269 1.644-4.7368-7.6718-7.8376-10.486zm28.59 4.064c-3.6143 6.7163-3.9546 7.2195-6.7734 7.1221 0.59863-1.2394 2.3174-2.2487 3.5234-3.4263 1.2852-1.2554 1.9839-3.6029 3.25-3.6958zm-12.705 0.2449c4.1138 4.3883 4.5532 5.9688 3.8604 6.4629-1.2671 0.47705-0.99048-0.76794-3.8604-6.4629zm-7.696 0.941c1.0127-0.16834 1.7505 1.3516 2.1531 2.5947 1.0278 3.1743 1.0396 2.7162 0.34668 2.9852-0.95532 0.37085-0.94922-2.868-2.4998-5.58zm-6.8118-0.2915c1.0598 0.031006 1.6113 1.3169 2.3545 2.5038 0.74658 2.2632 2.9194 3.6691 1.387 3.755-1.5237 0.085571-2.5779-3.5725-3.7414-6.2588zm11.361 0.8706c3.3428 3.6392 4.0579 4.7554 2.7153 4.9056-0.86572 0.096802-0.93408-0.79236-1.9224-2.2876-0.63672-0.96301-1.4302-1.8069-0.79297-2.618z" fill="#1e9e00" opacity=".698" stroke-width="3"/>
 </g>
</svg>
